# xmcd
#
# Track frame offsets: 
#        150
#        27507
#        46085
#        60875
#        81562
#        96740
#        107810
#        122410
#        151527
#        173050
#
# Disc length: 2631 seconds
#
# Revision: 3
# Processed by: cddbd v1.4PL0 Copyright (c) Steve Scherf et al.
# Submitted via: ExactAudioCopy v0.90a11
#
DISCID=750a450a
DTITLE=Juhn Mayall - New Year, New Band, New Company
DYEAR=1975
DGENRE=Blues
TTITLE0=Sitting On the Outside
TTITLE1=Can't Get Home
TTITLE2=Step In the Sun
TTITLE3=To Match the Wind
TTITLE4=Sweet Scorpio
TTITLE5=Driving On
TTITLE6=Taxman Blues
TTITLE7=So Much To Do
TTITLE8=My Train Time
TTITLE9=Respectfully Yours
EXTD=
EXTT0=
EXTT1=
EXTT2=
EXTT3=
EXTT4=
EXTT5=
EXTT6=
EXTT7=
EXTT8=
EXTT9=
PLAYORDER=
